# xmcd
#
# Track frame offsets:
#	150
#	20025
#	38400
#	54525
#	71550
#	87975
#	105975
#	125775
#	145125
#	165975
#	183600
#	200400
#	214425
#	231447
#	245547
#
# Disc length: 3293 seconds
#
# Revision: 0
# Processed by: cddbd v1.5.2PL0 Copyright (c) Steve Scherf et al.
# Submitted via: audiograbber 1.83.01
#
DISCID=d90cdb0f
DTITLE=Rascal Flatts - Qh015
DYEAR=1900
DGENRE=Karaoke
TTITLE0=Take Me There
TTITLE1=My Wish
TTITLE2=What Hurts The Most
TTITLE3=Bless The Broken Road
TTITLE4=Me And My Gang
TTITLE5=Mayberry
TTITLE6=Skin (Sarabeth)
TTITLE7=Fast Cars And Freedom
TTITLE8=Life Is A Highway
TTITLE9=I Melt
TTITLE10=These Days
TTITLE11=Love You Out Loud
TTITLE12=Prayin' For Daylight
TTITLE13=This Everyday Love
TTITLE14=Data Track
EXTD=
EXTT0=
EXTT1=
EXTT2=
EXTT3=
EXTT4=
EXTT5=
EXTT6=
EXTT7=
EXTT8=
EXTT9=
EXTT10=
EXTT11=
EXTT12=
EXTT13=
EXTT14=
PLAYORDER=
